<?xml version="1.0" encoding="utf-8"?>
<!-- Generator: Adobe Illustrator 22.1.0, SVG Export Plug-In . SVG Version: 6.00 Build 0)  -->
<svg version="1.1" id="Layer_1" xmlns="http://www.w3.org/2000/svg" xmlns:xlink="http://www.w3.org/1999/xlink" x="0px" y="0px"
	 viewBox="0 0 108.9 109.4" style="enable-background:new 0 0 108.9 109.4;" xml:space="preserve">
<style type="text/css">
	.st0{fill:#95C23E;}
</style>
<path class="st0" d="M37.3,34.6c-20.4,0-37,16.5-37,37s16.5,37,37,37c20.4,0,37-16.5,37-37S57.7,34.6,37.3,34.6z M37.3,91.4
	c-10.9,0-19.7-8.8-19.7-19.7S26.4,52,37.3,52S57,60.8,57,71.7S48.2,91.4,37.3,91.4z"/>
<path class="st0" d="M37.3,0.2v17.3c29.9,0,54.1,24.2,54.1,54.1c0,10.3-2.9,19.9-7.8,28.1l14.4,9.5c6.8-10.9,10.7-23.8,10.7-37.6
	C108.7,32.2,76.7,0.2,37.3,0.2z"/>
</svg>
